<svg xmlns="http://www.w3.org/2000/svg" id="export" class="graph" preserveAspectRatio="xMidYMid meet" style="position: absolute; margin: 0px;" width="385" height="581"><rect id="background" fill="#fff" pointer-events="all" width="385" height="581"/><g id="origin" transform="translate(17.5, 17.5) scale(1)"><g id="clusters" class="clusters"/><g id="edge-paths" class="edge-paths"><defs><marker id="arrowhead-vee" viewBox="0 0 10 10" refX="9" refY="5" markerUnits="strokeWidth" markerWidth="8" markerHeight="6" orient="auto" style="fill: rgb(0, 0, 0);"><path d="M 0 0 L 10 5 L 0 10 L 4 5 z" style="stroke-width: 1; stroke-dasharray: 1, 0;"/></marker></defs><path class="edge-path" d="M156.1328125,14.74515625L138.44401041666666,17.787630208333336C120.75520833333333,20.83010416666667,85.37760416666667,26.915052083333336,67.68880208333333,36.37419270833333C50,45.833333333333336,50,58.666666666666664,50,71.5C50,84.33333333333333,50,97.16666666666667,50,107.16666666666667C50,117.16666666666667,50,124.33333333333333,50,131.5C50,138.66666666666666,50,145.83333333333334,50,151.08333333333334C50,156.33333333333334,50,159.66666666666666,50,161.33333333333334L50,163" marker-end="url(#arrowhead-vee)" id="edge-[0,0]" style="stroke: rgb(0, 0, 0); stroke-width: 1px; fill: none;"/><path class="edge-path" d="M193.8671875,17.9903125L201.13932291666666,20.491927083333334C208.41145833333334,22.99354166666667,222.95572916666666,27.996770833333333,230.22786458333334,32.165052083333336C237.5,36.333333333333336,237.5,39.666666666666664,237.5,41.333333333333336L237.5,43" marker-end="url(#arrowhead-vee)" id="edge-[0,0]" style="stroke: rgb(0, 0, 0); stroke-width: 1px; fill: none;"/><path class="edge-path" d="M50,220L50,221.66666666666666C50,223.33333333333334,50,226.66666666666666,50,230C50,233.33333333333334,50,236.66666666666666,50,238.33333333333334L50,240" marker-end="url(#arrowhead-vee)" id="edge-[3,0]" style="stroke: rgb(0, 0, 0); stroke-width: 1px; fill: none;"/><path class="edge-path" d="M50,263L50,264.6666666666667C50,266.3333333333333,50,269.6666666666667,57.30519480519481,275.8333333333333C64.61038961038962,282,79.22077922077922,291,86.52597402597404,295.5L93.83116883116884,300" marker-end="url(#arrowhead-vee)" id="edge-[4,0]" style="stroke: rgb(0, 0, 0); stroke-width: 1px; fill: none;"/><path class="edge-path" d="M237.5,100L237.5,101.66666666666667C237.5,103.33333333333333,237.5,106.66666666666667,237.5,110C237.5,113.33333333333333,237.5,116.66666666666667,237.5,118.33333333333333L237.5,120" marker-end="url(#arrowhead-vee)" id="edge-[7,0]" style="stroke: rgb(0, 0, 0); stroke-width: 1px; fill: none;"/><path class="edge-path" d="M221.265625,137.084625L213.5546875,139.73718749999998C205.84375,142.38975,190.421875,147.694875,182.7109375,152.01410416666667C175,156.33333333333334,175,159.66666666666666,175,161.33333333333334L175,163" marker-end="url(#arrowhead-vee)" id="edge-[8,0]" style="stroke: rgb(0, 0, 0); stroke-width: 1px; fill: none;"/><path class="edge-path" d="M253.734375,137.084625L261.4453125,139.73718749999998C269.15625,142.38975,284.578125,147.694875,292.2890625,152.01410416666667C300,156.33333333333334,300,159.66666666666666,300,161.33333333333334L300,163" marker-end="url(#arrowhead-vee)" id="edge-[8,0]" style="stroke: rgb(0, 0, 0); stroke-width: 1px; fill: none;"/><path class="edge-path" d="M175,220L175,221.66666666666666C175,223.33333333333334,175,226.66666666666666,175,230C175,233.33333333333334,175,236.66666666666666,175,238.33333333333334L175,240" marker-end="url(#arrowhead-vee)" id="edge-[11,0]" style="stroke: rgb(0, 0, 0); stroke-width: 1px; fill: none;"/><path class="edge-path" d="M175,263L175,264.6666666666667C175,266.3333333333333,175,269.6666666666667,167.69480519480518,275.8333333333333C160.3896103896104,282,145.77922077922076,291,138.47402597402598,295.5L131.16883116883116,300" marker-end="url(#arrowhead-vee)" id="edge-[12,0]" style="stroke: rgb(0, 0, 0); stroke-width: 1px; fill: none;"/><path class="edge-path" d="M112.5,323L112.5,327.5C112.5,332,112.5,341,112.5,349.0833333333333C112.5,357.1666666666667,112.5,364.3333333333333,112.5,371.5C112.5,378.6666666666667,112.5,385.8333333333333,117.34496124031007,391.0833333333333C122.18992248062015,396.3333333333333,131.8798449612403,399.6666666666667,136.72480620155036,401.3333333333333L141.56976744186045,403" marker-end="url(#arrowhead-vee)" id="edge-[13,0]" style="stroke: rgb(0, 0, 0); stroke-width: 1px; fill: none;"/><path class="edge-path" d="M300,220L300,221.66666666666666C300,223.33333333333334,300,226.66666666666666,300,230C300,233.33333333333334,300,236.66666666666666,300,238.33333333333334L300,240" marker-end="url(#arrowhead-vee)" id="edge-[16,0]" style="stroke: rgb(0, 0, 0); stroke-width: 1px; fill: none;"/><path class="edge-path" d="M300,263L300,264.6666666666667C300,266.3333333333333,300,269.6666666666667,300,273C300,276.3333333333333,300,279.6666666666667,300,281.3333333333333L300,283" marker-end="url(#arrowhead-vee)" id="edge-[17,0]" style="stroke: rgb(0, 0, 0); stroke-width: 1px; fill: none;"/><path class="edge-path" d="M300,340L300,341.6666666666667C300,343.3333333333333,300,346.6666666666667,300,350C300,353.3333333333333,300,356.6666666666667,300,358.3333333333333L300,360" marker-end="url(#arrowhead-vee)" id="edge-[20,0]" style="stroke: rgb(0, 0, 0); stroke-width: 1px; fill: none;"/><path class="edge-path" d="M300,383L300,384.6666666666667C300,386.3333333333333,300,389.6666666666667,285.9830729166667,393.7442447916667C271.9661458333333,397.8218229166667,243.93229166666666,402.6436458333333,229.91536458333334,405.0545572916667L215.8984375,407.46546875" marker-end="url(#arrowhead-vee)" id="edge-[21,0]" style="stroke: rgb(0, 0, 0); stroke-width: 1px; fill: none;"/><path class="edge-path" d="M175,426L175,427.6666666666667C175,429.3333333333333,175,432.6666666666667,175,436C175,439.3333333333333,175,442.6666666666667,175,444.3333333333333L175,446" marker-end="url(#arrowhead-vee)" id="edge-[22,0]" style="stroke: rgb(0, 0, 0); stroke-width: 1px; fill: none;"/><path class="edge-path" d="M175,503L175,504.6666666666667C175,506.3333333333333,175,509.6666666666667,175,513C175,516.3333333333334,175,519.6666666666666,175,521.3333333333334L175,523" marker-end="url(#arrowhead-vee)" id="edge-[25,0]" style="stroke: rgb(0, 0, 0); stroke-width: 1px; fill: none;"/></g><g id="edge-labels" class="edge-labels"/><g id="nodes" class="nodes"><g id="node-FullyConnected!571" class="node" transform="translate(50,191.5)" style="opacity: 1;"><g transform="translate(-50,-28.5)"><g><g class="node-item node-item-operator node-item-operator-layer" transform="translate(0,0)"><path d="M5,0h90a5,5 0 0 1 5,5v18a0,0 0 0 1 0,0h-100a0,0 0 0 1 0,0v-18a5,5 0 0 1 5,-5z" style="stroke: rgb(0, 0, 0); fill: rgb(51, 85, 136); stroke-width: 0;"/><text x="6" y="16" style="font-family: -apple-system, BlinkMacSystemFont, &quot;Segoe WPC&quot;, &quot;Segoe UI&quot;, Ubuntu, &quot;Droid Sans&quot;, sans-serif; font-size: 11px; text-rendering: geometricprecision; fill: rgb(255, 255, 255);">FullyConnected</text><title>FullyConnected!571</title></g><g class="node-attribute" transform="translate(0,23)"><path d="M0,0h100a0,0 0 0 1 0,0v29a5,5 0 0 1 -5,5h-90a5,5 0 0 1 -5,-5v-29a0,0 0 0 1 0,0z" style="stroke: rgb(0, 0, 0); fill: rgb(255, 255, 255); stroke-width: 0;"/><text id="initializer-FullyConnected!571_weight" xml:space="preserve" x="6" y="14" style="font-family: -apple-system, BlinkMacSystemFont, &quot;Segoe WPC&quot;, &quot;Segoe UI&quot;, Ubuntu, &quot;Droid Sans&quot;, sans-serif; font-size: 9px; font-weight: normal; text-rendering: geometricprecision;"><title>?</title><tspan style="font-weight: bold;">weight</tspan><tspan/></text><text id="initializer-FullyConnected!571_bias" xml:space="preserve" x="6" y="28" style="font-family: -apple-system, BlinkMacSystemFont, &quot;Segoe WPC&quot;, &quot;Segoe UI&quot;, Ubuntu, &quot;Droid Sans&quot;, sans-serif; font-size: 9px; font-weight: normal; text-rendering: geometricprecision;"><title>?</title><tspan style="font-weight: bold;">bias</tspan><tspan/></text><line class="node" x1="0" x2="100" y1="0" y2="0" style="stroke: rgb(51, 51, 51); fill: none; stroke-width: 1px;"/></g><path class="node border" d="M5,0h90a5,5 0 0 1 5,5v47a5,5 0 0 1 -5,5h-90a5,5 0 0 1 -5,-5v-47a5,5 0 0 1 5,-5z" style="stroke: rgb(51, 51, 51); fill: none; stroke-width: 1px;"/></g></g></g><g id="node-Relu!570" class="node" transform="translate(50,251.5)" style="opacity: 1;"><g transform="translate(-16.234375,-11.5)"><g><g class="node-item node-item-operator node-item-operator-activation" transform="translate(0,0)"><path d="M5,0h22.46875a5,5 0 0 1 5,5v13a5,5 0 0 1 -5,5h-22.46875a5,5 0 0 1 -5,-5v-13a5,5 0 0 1 5,-5z" style="stroke: rgb(0, 0, 0); fill: rgb(75, 27, 22); stroke-width: 0;"/><text x="6" y="16" style="font-family: -apple-system, BlinkMacSystemFont, &quot;Segoe WPC&quot;, &quot;Segoe UI&quot;, Ubuntu, &quot;Droid Sans&quot;, sans-serif; font-size: 11px; text-rendering: geometricprecision; fill: rgb(255, 255, 255);">relu</text><title>Relu!570</title></g><path class="node border" d="M5,0h22.46875a5,5 0 0 1 5,5v13a5,5 0 0 1 -5,5h-22.46875a5,5 0 0 1 -5,-5v-13a5,5 0 0 1 5,-5z" style="stroke: rgb(51, 51, 51); fill: none; stroke-width: 1px;"/></g></g></g><g id="node-Convolution!575" class="node" transform="translate(237.5,71.5)" style="opacity: 1;"><g transform="translate(-50,-28.5)"><g><g class="node-item node-item-operator node-item-operator-layer" transform="translate(0,0)"><path d="M5,0h90a5,5 0 0 1 5,5v18a0,0 0 0 1 0,0h-100a0,0 0 0 1 0,0v-18a5,5 0 0 1 5,-5z" style="stroke: rgb(0, 0, 0); fill: rgb(51, 85, 136); stroke-width: 0;"/><text x="6" y="16" style="font-family: -apple-system, BlinkMacSystemFont, &quot;Segoe WPC&quot;, &quot;Segoe UI&quot;, Ubuntu, &quot;Droid Sans&quot;, sans-serif; font-size: 11px; text-rendering: geometricprecision; fill: rgb(255, 255, 255);">Convolution</text><title>Convolution!575</title></g><g class="node-attribute" transform="translate(0,23)"><path d="M0,0h100a0,0 0 0 1 0,0v29a5,5 0 0 1 -5,5h-90a5,5 0 0 1 -5,-5v-29a0,0 0 0 1 0,0z" style="stroke: rgb(0, 0, 0); fill: rgb(255, 255, 255); stroke-width: 0;"/><text id="initializer-Convolution!575_weight" xml:space="preserve" x="6" y="14" style="font-family: -apple-system, BlinkMacSystemFont, &quot;Segoe WPC&quot;, &quot;Segoe UI&quot;, Ubuntu, &quot;Droid Sans&quot;, sans-serif; font-size: 9px; font-weight: normal; text-rendering: geometricprecision;"><title>?</title><tspan style="font-weight: bold;">weight</tspan><tspan/></text><text id="initializer-Convolution!575_bias" xml:space="preserve" x="6" y="28" style="font-family: -apple-system, BlinkMacSystemFont, &quot;Segoe WPC&quot;, &quot;Segoe UI&quot;, Ubuntu, &quot;Droid Sans&quot;, sans-serif; font-size: 9px; font-weight: normal; text-rendering: geometricprecision;"><title>?</title><tspan style="font-weight: bold;">bias</tspan><tspan/></text><line class="node" x1="0" x2="100" y1="0" y2="0" style="stroke: rgb(51, 51, 51); fill: none; stroke-width: 1px;"/></g><path class="node border" d="M5,0h90a5,5 0 0 1 5,5v47a5,5 0 0 1 -5,5h-90a5,5 0 0 1 -5,-5v-47a5,5 0 0 1 5,-5z" style="stroke: rgb(51, 51, 51); fill: none; stroke-width: 1px;"/></g></g></g><g id="node-Relu!574" class="node" transform="translate(237.5,131.5)" style="opacity: 1;"><g transform="translate(-16.234375,-11.5)"><g><g class="node-item node-item-operator node-item-operator-activation" transform="translate(0,0)"><path d="M5,0h22.46875a5,5 0 0 1 5,5v13a5,5 0 0 1 -5,5h-22.46875a5,5 0 0 1 -5,-5v-13a5,5 0 0 1 5,-5z" style="stroke: rgb(0, 0, 0); fill: rgb(75, 27, 22); stroke-width: 0;"/><text x="6" y="16" style="font-family: -apple-system, BlinkMacSystemFont, &quot;Segoe WPC&quot;, &quot;Segoe UI&quot;, Ubuntu, &quot;Droid Sans&quot;, sans-serif; font-size: 11px; text-rendering: geometricprecision; fill: rgb(255, 255, 255);">relu</text><title>Relu!574</title></g><path class="node border" d="M5,0h22.46875a5,5 0 0 1 5,5v13a5,5 0 0 1 -5,5h-22.46875a5,5 0 0 1 -5,-5v-13a5,5 0 0 1 5,-5z" style="stroke: rgb(51, 51, 51); fill: none; stroke-width: 1px;"/></g></g></g><g id="node-FullyConnected!573" class="node" transform="translate(175,191.5)" style="opacity: 1;"><g transform="translate(-50,-28.5)"><g><g class="node-item node-item-operator node-item-operator-layer" transform="translate(0,0)"><path d="M5,0h90a5,5 0 0 1 5,5v18a0,0 0 0 1 0,0h-100a0,0 0 0 1 0,0v-18a5,5 0 0 1 5,-5z" style="stroke: rgb(0, 0, 0); fill: rgb(51, 85, 136); stroke-width: 0;"/><text x="6" y="16" style="font-family: -apple-system, BlinkMacSystemFont, &quot;Segoe WPC&quot;, &quot;Segoe UI&quot;, Ubuntu, &quot;Droid Sans&quot;, sans-serif; font-size: 11px; text-rendering: geometricprecision; fill: rgb(255, 255, 255);">FullyConnected</text><title>FullyConnected!573</title></g><g class="node-attribute" transform="translate(0,23)"><path d="M0,0h100a0,0 0 0 1 0,0v29a5,5 0 0 1 -5,5h-90a5,5 0 0 1 -5,-5v-29a0,0 0 0 1 0,0z" style="stroke: rgb(0, 0, 0); fill: rgb(255, 255, 255); stroke-width: 0;"/><text id="initializer-FullyConnected!573_weight" xml:space="preserve" x="6" y="14" style="font-family: -apple-system, BlinkMacSystemFont, &quot;Segoe WPC&quot;, &quot;Segoe UI&quot;, Ubuntu, &quot;Droid Sans&quot;, sans-serif; font-size: 9px; font-weight: normal; text-rendering: geometricprecision;"><title>?</title><tspan style="font-weight: bold;">weight</tspan><tspan/></text><text id="initializer-FullyConnected!573_bias" xml:space="preserve" x="6" y="28" style="font-family: -apple-system, BlinkMacSystemFont, &quot;Segoe WPC&quot;, &quot;Segoe UI&quot;, Ubuntu, &quot;Droid Sans&quot;, sans-serif; font-size: 9px; font-weight: normal; text-rendering: geometricprecision;"><title>?</title><tspan style="font-weight: bold;">bias</tspan><tspan/></text><line class="node" x1="0" x2="100" y1="0" y2="0" style="stroke: rgb(51, 51, 51); fill: none; stroke-width: 1px;"/></g><path class="node border" d="M5,0h90a5,5 0 0 1 5,5v47a5,5 0 0 1 -5,5h-90a5,5 0 0 1 -5,-5v-47a5,5 0 0 1 5,-5z" style="stroke: rgb(51, 51, 51); fill: none; stroke-width: 1px;"/></g></g></g><g id="node-Relu!572" class="node" transform="translate(175,251.5)" style="opacity: 1;"><g transform="translate(-16.234375,-11.5)"><g><g class="node-item node-item-operator node-item-operator-activation" transform="translate(0,0)"><path d="M5,0h22.46875a5,5 0 0 1 5,5v13a5,5 0 0 1 -5,5h-22.46875a5,5 0 0 1 -5,-5v-13a5,5 0 0 1 5,-5z" style="stroke: rgb(0, 0, 0); fill: rgb(75, 27, 22); stroke-width: 0;"/><text x="6" y="16" style="font-family: -apple-system, BlinkMacSystemFont, &quot;Segoe WPC&quot;, &quot;Segoe UI&quot;, Ubuntu, &quot;Droid Sans&quot;, sans-serif; font-size: 11px; text-rendering: geometricprecision; fill: rgb(255, 255, 255);">relu</text><title>Relu!572</title></g><path class="node border" d="M5,0h22.46875a5,5 0 0 1 5,5v13a5,5 0 0 1 -5,5h-22.46875a5,5 0 0 1 -5,-5v-13a5,5 0 0 1 5,-5z" style="stroke: rgb(51, 51, 51); fill: none; stroke-width: 1px;"/></g></g></g><g id="node-ElemwiseAdd!569" class="node" transform="translate(112.5,311.5)" style="opacity: 1;"><g transform="translate(-40.8984375,-11.5)"><g><g class="node-item node-item-operator" transform="translate(0,0)"><path d="M5,0h71.796875a5,5 0 0 1 5,5v13a5,5 0 0 1 -5,5h-71.796875a5,5 0 0 1 -5,-5v-13a5,5 0 0 1 5,-5z" style="stroke: rgb(0, 0, 0); fill: rgb(0, 0, 0); stroke-width: 0;"/><text x="6" y="16" style="font-family: -apple-system, BlinkMacSystemFont, &quot;Segoe WPC&quot;, &quot;Segoe UI&quot;, Ubuntu, &quot;Droid Sans&quot;, sans-serif; font-size: 11px; text-rendering: geometricprecision; fill: rgb(255, 255, 255);">elemwise_add</text><title>ElemwiseAdd!569</title></g><path class="node border" d="M5,0h71.796875a5,5 0 0 1 5,5v13a5,5 0 0 1 -5,5h-71.796875a5,5 0 0 1 -5,-5v-13a5,5 0 0 1 5,-5z" style="stroke: rgb(51, 51, 51); fill: none; stroke-width: 1px;"/></g></g></g><g id="node-Convolution!579" class="node" transform="translate(300,191.5)" style="opacity: 1;"><g transform="translate(-50,-28.5)"><g><g class="node-item node-item-operator node-item-operator-layer" transform="translate(0,0)"><path d="M5,0h90a5,5 0 0 1 5,5v18a0,0 0 0 1 0,0h-100a0,0 0 0 1 0,0v-18a5,5 0 0 1 5,-5z" style="stroke: rgb(0, 0, 0); fill: rgb(51, 85, 136); stroke-width: 0;"/><text x="6" y="16" style="font-family: -apple-system, BlinkMacSystemFont, &quot;Segoe WPC&quot;, &quot;Segoe UI&quot;, Ubuntu, &quot;Droid Sans&quot;, sans-serif; font-size: 11px; text-rendering: geometricprecision; fill: rgb(255, 255, 255);">Convolution</text><title>Convolution!579</title></g><g class="node-attribute" transform="translate(0,23)"><path d="M0,0h100a0,0 0 0 1 0,0v29a5,5 0 0 1 -5,5h-90a5,5 0 0 1 -5,-5v-29a0,0 0 0 1 0,0z" style="stroke: rgb(0, 0, 0); fill: rgb(255, 255, 255); stroke-width: 0;"/><text id="initializer-Convolution!579_weight" xml:space="preserve" x="6" y="14" style="font-family: -apple-system, BlinkMacSystemFont, &quot;Segoe WPC&quot;, &quot;Segoe UI&quot;, Ubuntu, &quot;Droid Sans&quot;, sans-serif; font-size: 9px; font-weight: normal; text-rendering: geometricprecision;"><title>?</title><tspan style="font-weight: bold;">weight</tspan><tspan/></text><text id="initializer-Convolution!579_bias" xml:space="preserve" x="6" y="28" style="font-family: -apple-system, BlinkMacSystemFont, &quot;Segoe WPC&quot;, &quot;Segoe UI&quot;, Ubuntu, &quot;Droid Sans&quot;, sans-serif; font-size: 9px; font-weight: normal; text-rendering: geometricprecision;"><title>?</title><tspan style="font-weight: bold;">bias</tspan><tspan/></text><line class="node" x1="0" x2="100" y1="0" y2="0" style="stroke: rgb(51, 51, 51); fill: none; stroke-width: 1px;"/></g><path class="node border" d="M5,0h90a5,5 0 0 1 5,5v47a5,5 0 0 1 -5,5h-90a5,5 0 0 1 -5,-5v-47a5,5 0 0 1 5,-5z" style="stroke: rgb(51, 51, 51); fill: none; stroke-width: 1px;"/></g></g></g><g id="node-Relu!578" class="node" transform="translate(300,251.5)" style="opacity: 1;"><g transform="translate(-16.234375,-11.5)"><g><g class="node-item node-item-operator node-item-operator-activation" transform="translate(0,0)"><path d="M5,0h22.46875a5,5 0 0 1 5,5v13a5,5 0 0 1 -5,5h-22.46875a5,5 0 0 1 -5,-5v-13a5,5 0 0 1 5,-5z" style="stroke: rgb(0, 0, 0); fill: rgb(75, 27, 22); stroke-width: 0;"/><text x="6" y="16" style="font-family: -apple-system, BlinkMacSystemFont, &quot;Segoe WPC&quot;, &quot;Segoe UI&quot;, Ubuntu, &quot;Droid Sans&quot;, sans-serif; font-size: 11px; text-rendering: geometricprecision; fill: rgb(255, 255, 255);">relu</text><title>Relu!578</title></g><path class="node border" d="M5,0h22.46875a5,5 0 0 1 5,5v13a5,5 0 0 1 -5,5h-22.46875a5,5 0 0 1 -5,-5v-13a5,5 0 0 1 5,-5z" style="stroke: rgb(51, 51, 51); fill: none; stroke-width: 1px;"/></g></g></g><g id="node-FullyConnected!577" class="node" transform="translate(300,311.5)" style="opacity: 1;"><g transform="translate(-50,-28.5)"><g><g class="node-item node-item-operator node-item-operator-layer" transform="translate(0,0)"><path d="M5,0h90a5,5 0 0 1 5,5v18a0,0 0 0 1 0,0h-100a0,0 0 0 1 0,0v-18a5,5 0 0 1 5,-5z" style="stroke: rgb(0, 0, 0); fill: rgb(51, 85, 136); stroke-width: 0;"/><text x="6" y="16" style="font-family: -apple-system, BlinkMacSystemFont, &quot;Segoe WPC&quot;, &quot;Segoe UI&quot;, Ubuntu, &quot;Droid Sans&quot;, sans-serif; font-size: 11px; text-rendering: geometricprecision; fill: rgb(255, 255, 255);">FullyConnected</text><title>FullyConnected!577</title></g><g class="node-attribute" transform="translate(0,23)"><path d="M0,0h100a0,0 0 0 1 0,0v29a5,5 0 0 1 -5,5h-90a5,5 0 0 1 -5,-5v-29a0,0 0 0 1 0,0z" style="stroke: rgb(0, 0, 0); fill: rgb(255, 255, 255); stroke-width: 0;"/><text id="initializer-FullyConnected!577_weight" xml:space="preserve" x="6" y="14" style="font-family: -apple-system, BlinkMacSystemFont, &quot;Segoe WPC&quot;, &quot;Segoe UI&quot;, Ubuntu, &quot;Droid Sans&quot;, sans-serif; font-size: 9px; font-weight: normal; text-rendering: geometricprecision;"><title>?</title><tspan style="font-weight: bold;">weight</tspan><tspan/></text><text id="initializer-FullyConnected!577_bias" xml:space="preserve" x="6" y="28" style="font-family: -apple-system, BlinkMacSystemFont, &quot;Segoe WPC&quot;, &quot;Segoe UI&quot;, Ubuntu, &quot;Droid Sans&quot;, sans-serif; font-size: 9px; font-weight: normal; text-rendering: geometricprecision;"><title>?</title><tspan style="font-weight: bold;">bias</tspan><tspan/></text><line class="node" x1="0" x2="100" y1="0" y2="0" style="stroke: rgb(51, 51, 51); fill: none; stroke-width: 1px;"/></g><path class="node border" d="M5,0h90a5,5 0 0 1 5,5v47a5,5 0 0 1 -5,5h-90a5,5 0 0 1 -5,-5v-47a5,5 0 0 1 5,-5z" style="stroke: rgb(51, 51, 51); fill: none; stroke-width: 1px;"/></g></g></g><g id="node-Relu!576" class="node" transform="translate(300,371.5)" style="opacity: 1;"><g transform="translate(-16.234375,-11.5)"><g><g class="node-item node-item-operator node-item-operator-activation" transform="translate(0,0)"><path d="M5,0h22.46875a5,5 0 0 1 5,5v13a5,5 0 0 1 -5,5h-22.46875a5,5 0 0 1 -5,-5v-13a5,5 0 0 1 5,-5z" style="stroke: rgb(0, 0, 0); fill: rgb(75, 27, 22); stroke-width: 0;"/><text x="6" y="16" style="font-family: -apple-system, BlinkMacSystemFont, &quot;Segoe WPC&quot;, &quot;Segoe UI&quot;, Ubuntu, &quot;Droid Sans&quot;, sans-serif; font-size: 11px; text-rendering: geometricprecision; fill: rgb(255, 255, 255);">relu</text><title>Relu!576</title></g><path class="node border" d="M5,0h22.46875a5,5 0 0 1 5,5v13a5,5 0 0 1 -5,5h-22.46875a5,5 0 0 1 -5,-5v-13a5,5 0 0 1 5,-5z" style="stroke: rgb(51, 51, 51); fill: none; stroke-width: 1px;"/></g></g></g><g id="node-ElemwiseAdd!568" class="node" transform="translate(175,414.5)" style="opacity: 1;"><g transform="translate(-40.8984375,-11.5)"><g><g class="node-item node-item-operator" transform="translate(0,0)"><path d="M5,0h71.796875a5,5 0 0 1 5,5v13a5,5 0 0 1 -5,5h-71.796875a5,5 0 0 1 -5,-5v-13a5,5 0 0 1 5,-5z" style="stroke: rgb(0, 0, 0); fill: rgb(0, 0, 0); stroke-width: 0;"/><text x="6" y="16" style="font-family: -apple-system, BlinkMacSystemFont, &quot;Segoe WPC&quot;, &quot;Segoe UI&quot;, Ubuntu, &quot;Droid Sans&quot;, sans-serif; font-size: 11px; text-rendering: geometricprecision; fill: rgb(255, 255, 255);">elemwise_add</text><title>ElemwiseAdd!568</title></g><path class="node border" d="M5,0h71.796875a5,5 0 0 1 5,5v13a5,5 0 0 1 -5,5h-71.796875a5,5 0 0 1 -5,-5v-13a5,5 0 0 1 5,-5z" style="stroke: rgb(51, 51, 51); fill: none; stroke-width: 1px;"/></g></g></g><g id="node-FullyConnected!567" class="node" transform="translate(175,474.5)" style="opacity: 1;"><g transform="translate(-50,-28.5)"><g><g class="node-item node-item-operator node-item-operator-layer" transform="translate(0,0)"><path d="M5,0h90a5,5 0 0 1 5,5v18a0,0 0 0 1 0,0h-100a0,0 0 0 1 0,0v-18a5,5 0 0 1 5,-5z" style="stroke: rgb(0, 0, 0); fill: rgb(51, 85, 136); stroke-width: 0;"/><text x="6" y="16" style="font-family: -apple-system, BlinkMacSystemFont, &quot;Segoe WPC&quot;, &quot;Segoe UI&quot;, Ubuntu, &quot;Droid Sans&quot;, sans-serif; font-size: 11px; text-rendering: geometricprecision; fill: rgb(255, 255, 255);">FullyConnected</text><title>FullyConnected!567</title></g><g class="node-attribute" transform="translate(0,23)"><path d="M0,0h100a0,0 0 0 1 0,0v29a5,5 0 0 1 -5,5h-90a5,5 0 0 1 -5,-5v-29a0,0 0 0 1 0,0z" style="stroke: rgb(0, 0, 0); fill: rgb(255, 255, 255); stroke-width: 0;"/><text id="initializer-FullyConnected!567_weight" xml:space="preserve" x="6" y="14" style="font-family: -apple-system, BlinkMacSystemFont, &quot;Segoe WPC&quot;, &quot;Segoe UI&quot;, Ubuntu, &quot;Droid Sans&quot;, sans-serif; font-size: 9px; font-weight: normal; text-rendering: geometricprecision;"><title>?</title><tspan style="font-weight: bold;">weight</tspan><tspan/></text><text id="initializer-FullyConnected!567_bias" xml:space="preserve" x="6" y="28" style="font-family: -apple-system, BlinkMacSystemFont, &quot;Segoe WPC&quot;, &quot;Segoe UI&quot;, Ubuntu, &quot;Droid Sans&quot;, sans-serif; font-size: 9px; font-weight: normal; text-rendering: geometricprecision;"><title>?</title><tspan style="font-weight: bold;">bias</tspan><tspan/></text><line class="node" x1="0" x2="100" y1="0" y2="0" style="stroke: rgb(51, 51, 51); fill: none; stroke-width: 1px;"/></g><path class="node border" d="M5,0h90a5,5 0 0 1 5,5v47a5,5 0 0 1 -5,5h-90a5,5 0 0 1 -5,-5v-47a5,5 0 0 1 5,-5z" style="stroke: rgb(51, 51, 51); fill: none; stroke-width: 1px;"/></g></g></g><g class="node graph-input" transform="translate(175,11.5)" style="opacity: 1;"><g transform="translate(-18.8671875,-11.5)"><g><g class="node-item graph-item-input" transform="translate(0,0)"><path d="M5,0h27.734375a5,5 0 0 1 5,5v13a5,5 0 0 1 -5,5h-27.734375a5,5 0 0 1 -5,-5v-13a5,5 0 0 1 5,-5z" style="stroke: rgb(0, 0, 0); fill: rgb(238, 238, 238); stroke-width: 0;"/><text x="6" y="16" style="font-family: -apple-system, BlinkMacSystemFont, &quot;Segoe WPC&quot;, &quot;Segoe UI&quot;, Ubuntu, &quot;Droid Sans&quot;, sans-serif; font-size: 11px; text-rendering: geometricprecision;">state</text></g><path class="node border" d="M5,0h27.734375a5,5 0 0 1 5,5v13a5,5 0 0 1 -5,5h-27.734375a5,5 0 0 1 -5,-5v-13a5,5 0 0 1 5,-5z" style="stroke: rgb(51, 51, 51); fill: none; stroke-width: 1px;"/></g></g></g><g class="node" transform="translate(175,534.5)" style="opacity: 1;"><g transform="translate(-54.8671875,-11.5)"><g><g class="node-item graph-item-output" transform="translate(0,0)"><path d="M5,0h99.734375a5,5 0 0 1 5,5v13a5,5 0 0 1 -5,5h-99.734375a5,5 0 0 1 -5,-5v-13a5,5 0 0 1 5,-5z" style="stroke: rgb(0, 0, 0); fill: rgb(238, 238, 238); stroke-width: 0;"/><text x="6" y="16" style="font-family: -apple-system, BlinkMacSystemFont, &quot;Segoe WPC&quot;, &quot;Segoe UI&quot;, Ubuntu, &quot;Droid Sans&quot;, sans-serif; font-size: 11px; text-rendering: geometricprecision;">FullyConnected!567</text></g><path class="node border" d="M5,0h99.734375a5,5 0 0 1 5,5v13a5,5 0 0 1 -5,5h-99.734375a5,5 0 0 1 -5,-5v-13a5,5 0 0 1 5,-5z" style="stroke: rgb(51, 51, 51); fill: none; stroke-width: 1px;"/></g></g></g></g></g></svg>